<?xml version="1.0" encoding="UTF-8" standalone="no"?>
<!DOCTYPE svg PUBLIC "-//W3C//DTD SVG 1.1//EN"
 "http://www.w3.org/Graphics/SVG/1.1/DTD/svg11.dtd">
<!-- Generated by graphviz version 2.49.3 (20211023.0002)
 -->
<!-- Pages: 1 -->
<svg width="735pt" height="145pt"
 viewBox="0.00 0.00 735.00 145.44" xmlns="http://www.w3.org/2000/svg" xmlns:xlink="http://www.w3.org/1999/xlink">
<g id="graph0" class="graph" transform="scale(1 1) rotate(0) translate(4 141.44)">
<polygon fill="white" stroke="transparent" points="-4,4 -4,-141.44 731,-141.44 731,4 -4,4"/>
<!-- M2 pos target -->
<g id="node1" class="node">
<title>M2 pos target</title>
<polygon fill="lightgray" stroke="black" points="727,-137.44 659,-137.44 659,-119.44 727,-119.44 727,-137.44"/>
<text text-anchor="middle" x="693" y="-126.24" font-family="Times New Roman,serif" font-size="9.00">M2 pos target</text>
</g>
<!-- M2 Torque -->
<g id="node10" class="node">
<title>M2 Torque</title>
<ellipse fill="lightblue" stroke="black" cx="371" cy="-41.72" rx="41.94" ry="41.94"/>
<text text-anchor="middle" x="371" y="-39.52" font-family="Times New Roman,serif" font-size="9.00">M2 Torque</text>
</g>
<!-- M2 pos target&#45;&gt;M2 Torque -->
<g id="edge1" class="edge">
<title>M2 pos target&#45;&gt;M2 Torque</title>
<path fill="none" stroke="green" stroke-width="0.37" d="M658.75,-120.98C655.79,-120.45 652.84,-119.93 650,-119.44 548.46,-102.01 515.09,-125.42 421,-83.44 416.92,-81.62 412.9,-79.38 409.02,-76.89"/>
<polygon fill="green" stroke="green" stroke-width="0.37" points="410.97,-73.98 400.77,-71.12 406.96,-79.72 410.97,-73.98"/>
</g>
<!-- M3 Torque -->
<g id="node11" class="node">
<title>M3 Torque</title>
<ellipse fill="lightblue" stroke="black" cx="472" cy="-41.72" rx="41.94" ry="41.94"/>
<text text-anchor="middle" x="472" y="-39.52" font-family="Times New Roman,serif" font-size="9.00">M3 Torque</text>
</g>
<!-- M2 pos target&#45;&gt;M3 Torque -->
<g id="edge2" class="edge">
<title>M2 pos target&#45;&gt;M3 Torque</title>
<path fill="none" stroke="green" stroke-width="0.11" d="M671.81,-119.32C637.14,-106.03 567.44,-79.31 520.24,-61.21"/>
<polygon fill="green" stroke="green" stroke-width="0.11" points="521.42,-57.91 510.83,-57.6 518.91,-64.45 521.42,-57.91"/>
</g>
<!-- M2 vel target -->
<g id="node2" class="node">
<title>M2 vel target</title>
<polygon fill="lightgray" stroke="black" points="151.5,-137.44 86.5,-137.44 86.5,-119.44 151.5,-119.44 151.5,-137.44"/>
<text text-anchor="middle" x="119" y="-126.24" font-family="Times New Roman,serif" font-size="9.00">M2 vel target</text>
</g>
<!-- M2 vel target&#45;&gt;M2 Torque -->
<g id="edge3" class="edge">
<title>M2 vel target&#45;&gt;M2 Torque</title>
<path fill="none" stroke="green" stroke-width="0.1" d="M143.16,-119.32C184.22,-105.51 268.35,-77.23 322.1,-59.16"/>
<polygon fill="green" stroke="green" stroke-width="0.1" points="323.4,-62.42 331.76,-55.91 321.16,-55.78 323.4,-62.42"/>
</g>
<!-- M2 vel target&#45;&gt;M3 Torque -->
<g id="edge4" class="edge">
<title>M2 vel target&#45;&gt;M3 Torque</title>
<path fill="none" stroke="red" stroke-width="0.32" d="M151.53,-121.07C154.73,-120.5 157.92,-119.94 161,-119.44 276.55,-100.48 314.62,-130.14 422,-83.44 426.1,-81.66 430.13,-79.44 434.02,-76.97"/>
<polygon fill="red" stroke="red" stroke-width="0.32" points="436.07,-79.81 442.28,-71.23 432.07,-74.06 436.07,-79.81"/>
</g>
<!-- M3 pos target -->
<g id="node3" class="node">
<title>M3 pos target</title>
<polygon fill="lightgray" stroke="black" points="68,-137.44 0,-137.44 0,-119.44 68,-119.44 68,-137.44"/>
<text text-anchor="middle" x="34" y="-126.24" font-family="Times New Roman,serif" font-size="9.00">M3 pos target</text>
</g>
<!-- M3 pos target&#45;&gt;M2 Torque -->
<g id="edge5" class="edge">
<title>M3 pos target&#45;&gt;M2 Torque</title>
<path fill="none" stroke="red" stroke-width="0.1" d="M66.01,-119.39C124.81,-104.61 250.43,-73.03 320.73,-55.36"/>
<polygon fill="red" stroke="red" stroke-width="0.1" points="321.84,-58.69 330.68,-52.86 320.13,-51.9 321.84,-58.69"/>
</g>
<!-- M3 vel target -->
<g id="node4" class="node">
<title>M3 vel target</title>
<polygon fill="lightgray" stroke="black" points="234.5,-137.44 169.5,-137.44 169.5,-119.44 234.5,-119.44 234.5,-137.44"/>
<text text-anchor="middle" x="202" y="-126.24" font-family="Times New Roman,serif" font-size="9.00">M3 vel target</text>
</g>
<!-- M3 vel target&#45;&gt;M2 Torque -->
<g id="edge6" class="edge">
<title>M3 vel target&#45;&gt;M2 Torque</title>
<path fill="none" stroke="red" stroke-width="0.33" d="M218.2,-119.32C242.47,-107.15 289.19,-83.73 324.61,-65.98"/>
<polygon fill="red" stroke="red" stroke-width="0.33" points="326.44,-68.97 333.81,-61.36 323.3,-62.72 326.44,-68.97"/>
</g>
<!-- M3 vel target&#45;&gt;M3 Torque -->
<g id="edge7" class="edge">
<title>M3 vel target&#45;&gt;M3 Torque</title>
<path fill="none" stroke="green" stroke-width="0.13" d="M234.64,-121.12C294.87,-109.43 417.75,-85.44 422,-83.44 426.04,-81.53 430.03,-79.24 433.9,-76.71"/>
<polygon fill="green" stroke="green" stroke-width="0.13" points="435.99,-79.52 442.12,-70.89 431.94,-73.81 435.99,-79.52"/>
</g>
<!-- M2 pos current -->
<g id="node5" class="node">
<title>M2 pos current</title>
<polygon fill="lightgray" stroke="black" points="327,-137.44 253,-137.44 253,-119.44 327,-119.44 327,-137.44"/>
<text text-anchor="middle" x="290" y="-126.24" font-family="Times New Roman,serif" font-size="9.00">M2 pos current</text>
</g>
<!-- M2 pos current&#45;&gt;M2 Torque -->
<g id="edge8" class="edge">
<title>M2 pos current&#45;&gt;M2 Torque</title>
<path fill="none" stroke="red" stroke-width="0.24" d="M297.77,-119.32C306.47,-110.22 321.18,-94.82 335.15,-80.21"/>
<polygon fill="red" stroke="red" stroke-width="0.24" points="337.97,-82.33 342.36,-72.68 332.91,-77.49 337.97,-82.33"/>
</g>
<!-- M2 pos current&#45;&gt;M3 Torque -->
<g id="edge9" class="edge">
<title>M2 pos current&#45;&gt;M3 Torque</title>
<path fill="none" stroke="green" stroke-width="0.18" d="M325.33,-119.39C352.77,-112.27 391.2,-100.37 422,-83.44 425.75,-81.38 429.5,-79.02 433.16,-76.51"/>
<polygon fill="green" stroke="green" stroke-width="0.18" points="435.49,-79.14 441.5,-70.41 431.36,-73.48 435.49,-79.14"/>
</g>
<!-- M2 vel current -->
<g id="node6" class="node">
<title>M2 vel current</title>
<polygon fill="lightgray" stroke="black" points="416.5,-137.44 345.5,-137.44 345.5,-119.44 416.5,-119.44 416.5,-137.44"/>
<text text-anchor="middle" x="381" y="-126.24" font-family="Times New Roman,serif" font-size="9.00">M2 vel current</text>
</g>
<!-- M2 vel current&#45;&gt;M2 Torque -->
<g id="edge10" class="edge">
<title>M2 vel current&#45;&gt;M2 Torque</title>
<path fill="none" stroke="red" stroke-width="0.21" d="M380.04,-119.32C379.29,-112.98 378.18,-103.59 377,-93.54"/>
<polygon fill="red" stroke="red" stroke-width="0.21" points="380.44,-92.87 375.8,-83.35 373.49,-93.69 380.44,-92.87"/>
</g>
<!-- M2 vel current&#45;&gt;M3 Torque -->
<g id="edge11" class="edge">
<title>M2 vel current&#45;&gt;M3 Torque</title>
<path fill="none" stroke="green" stroke-width="0.16" d="M389.73,-119.32C400.06,-109.69 417.97,-93.02 434.44,-77.69"/>
<polygon fill="green" stroke="green" stroke-width="0.16" points="436.94,-80.14 441.88,-70.76 432.17,-75.02 436.94,-80.14"/>
</g>
<!-- M3 pos current -->
<g id="node7" class="node">
<title>M3 pos current</title>
<polygon fill="lightgray" stroke="black" points="509,-137.44 435,-137.44 435,-119.44 509,-119.44 509,-137.44"/>
<text text-anchor="middle" x="472" y="-126.24" font-family="Times New Roman,serif" font-size="9.00">M3 pos current</text>
</g>
<!-- M3 pos current&#45;&gt;M2 Torque -->
<g id="edge12" class="edge">
<title>M3 pos current&#45;&gt;M2 Torque</title>
<path fill="none" stroke="green" stroke-width="0.13" d="M462.32,-119.32C450.34,-109.27 429.21,-91.55 410.3,-75.68"/>
<polygon fill="green" stroke="green" stroke-width="0.13" points="412.54,-73 402.63,-69.25 408.04,-78.36 412.54,-73"/>
</g>
<!-- M3 pos current&#45;&gt;M3 Torque -->
<g id="edge13" class="edge">
<title>M3 pos current&#45;&gt;M3 Torque</title>
<path fill="none" stroke="red" stroke-width="0.13" d="M472,-119.32C472,-113.04 472,-103.77 472,-93.83"/>
<polygon fill="red" stroke="red" stroke-width="0.13" points="475.5,-93.75 472,-83.75 468.5,-93.75 475.5,-93.75"/>
</g>
<!-- M3 vel current -->
<g id="node8" class="node">
<title>M3 vel current</title>
<polygon fill="lightgray" stroke="black" points="598.5,-137.44 527.5,-137.44 527.5,-119.44 598.5,-119.44 598.5,-137.44"/>
<text text-anchor="middle" x="563" y="-126.24" font-family="Times New Roman,serif" font-size="9.00">M3 vel current</text>
</g>
<!-- M3 vel current&#45;&gt;M2 Torque -->
<g id="edge14" class="edge">
<title>M3 vel current&#45;&gt;M2 Torque</title>
<path fill="none" stroke="green" stroke-width="0.34" d="M527.38,-120.39C497.72,-113.61 455.01,-101.66 421,-83.44 417.23,-81.42 413.46,-79.09 409.79,-76.59"/>
<polygon fill="green" stroke="green" stroke-width="0.34" points="411.58,-73.57 401.43,-70.53 407.47,-79.23 411.58,-73.57"/>
</g>
<!-- M3 vel current&#45;&gt;M3 Torque -->
<g id="edge15" class="edge">
<title>M3 vel current&#45;&gt;M3 Torque</title>
<path fill="none" stroke="red" stroke-width="0.36" d="M554.27,-119.32C543.94,-109.69 526.03,-93.02 509.56,-77.69"/>
<polygon fill="red" stroke="red" stroke-width="0.36" points="511.83,-75.02 502.12,-70.76 507.06,-80.14 511.83,-75.02"/>
</g>
<!-- &#45;9 -->
<g id="node9" class="node">
<title>&#45;9</title>
<polygon fill="lightgray" stroke="black" points="641,-137.44 617,-137.44 617,-119.44 641,-119.44 641,-137.44"/>
<text text-anchor="middle" x="629" y="-126.24" font-family="Times New Roman,serif" font-size="9.00">&#45;9</text>
</g>
<!-- &#45;9&#45;&gt;M2 Torque -->
<g id="edge16" class="edge">
<title>&#45;9&#45;&gt;M2 Torque</title>
<path fill="none" stroke="green" stroke-width="0.18" d="M616.68,-122.34C613.86,-121.28 610.85,-120.25 608,-119.44 526.59,-96.29 497.69,-119.25 421,-83.44 416.95,-81.55 412.95,-79.26 409.09,-76.74"/>
<polygon fill="green" stroke="green" stroke-width="0.18" points="411.04,-73.84 400.86,-70.93 407,-79.56 411.04,-73.84"/>
</g>
<!-- &#45;9&#45;&gt;M3 Torque -->
<g id="edge17" class="edge">
<title>&#45;9&#45;&gt;M3 Torque</title>
<path fill="none" stroke="green" stroke-width="0.13" d="M616.94,-120.93C595.91,-109.59 551.53,-85.63 517.38,-67.21"/>
<polygon fill="green" stroke="green" stroke-width="0.13" points="518.96,-64.08 508.49,-62.41 515.63,-70.24 518.96,-64.08"/>
</g>
</g>
</svg>
