<?xml version="1.0" encoding="UTF-8" standalone="no"?>
<!DOCTYPE svg PUBLIC "-//W3C//DTD SVG 1.1//EN"
 "http://www.w3.org/Graphics/SVG/1.1/DTD/svg11.dtd">
<!-- Generated by graphviz version 2.49.3 (20211023.0002)
 -->
<!-- Pages: 1 -->
<svg width="754pt" height="211pt"
 viewBox="0.00 0.00 753.88 211.14" xmlns="http://www.w3.org/2000/svg" xmlns:xlink="http://www.w3.org/1999/xlink">
<g id="graph0" class="graph" transform="scale(1 1) rotate(0) translate(4 207.14)">
<polygon fill="white" stroke="transparent" points="-4,4 -4,-207.14 749.88,-207.14 749.88,4 -4,4"/>
<!-- M2 pos target -->
<g id="node1" class="node">
<title>M2 pos target</title>
<polygon fill="lightgray" stroke="black" points="195.85,-143.29 127.85,-143.29 127.85,-125.29 195.85,-125.29 195.85,-143.29"/>
<text text-anchor="middle" x="161.85" y="-132.09" font-family="Times New Roman,serif" font-size="9.00">M2 pos target</text>
</g>
<!-- M2 Torque -->
<g id="node10" class="node">
<title>M2 Torque</title>
<ellipse fill="lightblue" stroke="black" cx="416.85" cy="-41.72" rx="41.94" ry="41.94"/>
<text text-anchor="middle" x="416.85" y="-39.52" font-family="Times New Roman,serif" font-size="9.00">M2 Torque</text>
</g>
<!-- M2 pos target&#45;&gt;M2 Torque -->
<g id="edge1" class="edge">
<title>M2 pos target&#45;&gt;M2 Torque</title>
<path fill="none" stroke="green" stroke-width="0.51" d="M186.94,-125.25C193.11,-123.31 199.71,-121.27 205.85,-119.44 262.06,-102.63 278.02,-104.31 332.85,-83.44 345.52,-78.61 358.88,-72.59 371.13,-66.67"/>
<polygon fill="green" stroke="green" stroke-width="0.51" points="372.82,-69.74 380.25,-62.19 369.73,-63.46 372.82,-69.74"/>
</g>
<!-- M3 Torque -->
<g id="node11" class="node">
<title>M3 Torque</title>
<ellipse fill="lightblue" stroke="black" cx="281.85" cy="-41.72" rx="41.94" ry="41.94"/>
<text text-anchor="middle" x="281.85" y="-39.52" font-family="Times New Roman,serif" font-size="9.00">M3 Torque</text>
</g>
<!-- M2 pos target&#45;&gt;M3 Torque -->
<g id="edge2" class="edge">
<title>M2 pos target&#45;&gt;M3 Torque</title>
<path fill="none" stroke="green" stroke-width="0.27" d="M172.5,-125.25C187.75,-113.74 216.66,-91.92 240.93,-73.61"/>
<polygon fill="green" stroke="green" stroke-width="0.27" points="243.08,-76.37 248.95,-67.55 238.86,-70.78 243.08,-76.37"/>
</g>
<!-- M2 vel target -->
<g id="node2" class="node">
<title>M2 vel target</title>
<polygon fill="lightgray" stroke="black" points="279.35,-143.29 214.35,-143.29 214.35,-125.29 279.35,-125.29 279.35,-143.29"/>
<text text-anchor="middle" x="246.85" y="-132.09" font-family="Times New Roman,serif" font-size="9.00">M2 vel target</text>
</g>
<!-- M2 vel target&#45;&gt;M2 Torque -->
<g id="edge3" class="edge">
<title>M2 vel target&#45;&gt;M2 Torque</title>
<path fill="none" stroke="red" stroke-width="0.22" d="M261.94,-125.25C286.21,-112.32 334.88,-86.39 371.23,-67.03"/>
<polygon fill="red" stroke="red" stroke-width="0.22" points="373,-70.05 380.18,-62.26 369.71,-63.87 373,-70.05"/>
</g>
<!-- M2 vel target&#45;&gt;M3 Torque -->
<g id="edge4" class="edge">
<title>M2 vel target&#45;&gt;M3 Torque</title>
<path fill="none" stroke="green" stroke-width="0.12" d="M249.96,-125.25C253.05,-117.24 258.08,-104.23 263.23,-90.89"/>
<polygon fill="green" stroke="green" stroke-width="0.12" points="266.64,-91.78 266.98,-81.19 260.11,-89.25 266.64,-91.78"/>
</g>
<!-- M3 pos target -->
<g id="node3" class="node">
<title>M3 pos target</title>
<polygon fill="lightgray" stroke="black" points="365.85,-143.29 297.85,-143.29 297.85,-125.29 365.85,-125.29 365.85,-143.29"/>
<text text-anchor="middle" x="331.85" y="-132.09" font-family="Times New Roman,serif" font-size="9.00">M3 pos target</text>
</g>
<!-- M3 pos target&#45;&gt;M2 Torque -->
<g id="edge5" class="edge">
<title>M3 pos target&#45;&gt;M2 Torque</title>
<path fill="none" stroke="red" stroke-width="0.22" d="M339.39,-125.25C348.91,-115.11 365.92,-96.99 381.58,-80.3"/>
<polygon fill="red" stroke="red" stroke-width="0.22" points="384.36,-82.46 388.65,-72.77 379.25,-77.67 384.36,-82.46"/>
</g>
<!-- M3 pos target&#45;&gt;M3 Torque -->
<g id="edge6" class="edge">
<title>M3 pos target&#45;&gt;M3 Torque</title>
<path fill="none" stroke="green" stroke-width="0.48" d="M327.41,-125.25C322.62,-116.57 314.6,-102.05 306.61,-87.58"/>
<polygon fill="green" stroke="green" stroke-width="0.48" points="309.57,-85.69 301.67,-78.63 303.44,-89.07 309.57,-85.69"/>
</g>
<!-- M3 vel target -->
<g id="node4" class="node">
<title>M3 vel target</title>
<polygon fill="lightgray" stroke="black" points="449.35,-143.29 384.35,-143.29 384.35,-125.29 449.35,-125.29 449.35,-143.29"/>
<text text-anchor="middle" x="416.85" y="-132.09" font-family="Times New Roman,serif" font-size="9.00">M3 vel target</text>
</g>
<!-- M3 vel target&#45;&gt;M2 Torque -->
<g id="edge7" class="edge">
<title>M3 vel target&#45;&gt;M2 Torque</title>
<path fill="none" stroke="green" stroke-width="0.14" d="M416.85,-125.25C416.85,-117.88 416.85,-106.28 416.85,-94.08"/>
<polygon fill="green" stroke="green" stroke-width="0.14" points="420.35,-93.77 416.85,-83.77 413.35,-93.77 420.35,-93.77"/>
</g>
<!-- M3 vel target&#45;&gt;M3 Torque -->
<g id="edge8" class="edge">
<title>M3 vel target&#45;&gt;M3 Torque</title>
<path fill="none" stroke="green" stroke-width="0.29" d="M404.87,-125.25C387.03,-113.28 352.6,-90.18 324.69,-71.46"/>
<polygon fill="green" stroke="green" stroke-width="0.29" points="326.52,-68.47 316.26,-65.81 322.62,-74.28 326.52,-68.47"/>
</g>
<!-- M2 pos current -->
<g id="node5" class="node">
<title>M2 pos current</title>
<polygon fill="lightgray" stroke="black" points="541.85,-143.29 467.85,-143.29 467.85,-125.29 541.85,-125.29 541.85,-143.29"/>
<text text-anchor="middle" x="504.85" y="-132.09" font-family="Times New Roman,serif" font-size="9.00">M2 pos current</text>
</g>
<!-- M2 pos current&#45;&gt;M2 Torque -->
<g id="edge9" class="edge">
<title>M2 pos current&#45;&gt;M2 Torque</title>
<path fill="none" stroke="red" stroke-width="0.51" d="M497.04,-125.25C487.12,-115.04 469.32,-96.72 453.01,-79.93"/>
<polygon fill="red" stroke="red" stroke-width="0.51" points="455.13,-77.09 445.65,-72.36 450.11,-81.97 455.13,-77.09"/>
</g>
<!-- M2 pos current&#45;&gt;M3 Torque -->
<g id="edge10" class="edge">
<title>M2 pos current&#45;&gt;M3 Torque</title>
<path fill="none" stroke="green" stroke-width="0.43" d="M479.94,-125.25C451.88,-115.99 405.08,-99.93 365.85,-83.44 353.35,-78.18 340.05,-72.02 327.8,-66.09"/>
<polygon fill="green" stroke="green" stroke-width="0.43" points="329.19,-62.88 318.67,-61.63 326.12,-69.16 329.19,-62.88"/>
</g>
<!-- M2 vel current -->
<g id="node6" class="node">
<title>M2 vel current</title>
<polygon fill="lightgray" stroke="black" points="631.35,-143.29 560.35,-143.29 560.35,-125.29 631.35,-125.29 631.35,-143.29"/>
<text text-anchor="middle" x="595.85" y="-132.09" font-family="Times New Roman,serif" font-size="9.00">M2 vel current</text>
</g>
<!-- M2 vel current&#45;&gt;M2 Torque -->
<g id="edge11" class="edge">
<title>M2 vel current&#45;&gt;M2 Torque</title>
<path fill="none" stroke="green" stroke-width="0.38" d="M579.96,-125.25C553.9,-112.06 501.12,-85.36 462.64,-65.89"/>
<polygon fill="green" stroke="green" stroke-width="0.38" points="464.18,-62.75 453.68,-61.35 461.02,-68.99 464.18,-62.75"/>
</g>
<!-- M2 vel current&#45;&gt;M3 Torque -->
<g id="edge12" class="edge">
<title>M2 vel current&#45;&gt;M3 Torque</title>
<path fill="none" stroke="green" stroke-width="0.46" d="M571.22,-125.19C564.64,-123.17 557.51,-121.11 550.85,-119.44 469.59,-99.09 445.31,-109.93 365.85,-83.44 352.99,-79.15 339.56,-73.31 327.31,-67.4"/>
<polygon fill="green" stroke="green" stroke-width="0.46" points="328.71,-64.19 318.2,-62.89 325.61,-70.47 328.71,-64.19"/>
</g>
<!-- M3 pos current -->
<g id="node7" class="node">
<title>M3 pos current</title>
<polygon fill="lightgray" stroke="black" points="94.85,-203.14 20.85,-203.14 20.85,-185.14 94.85,-185.14 94.85,-203.14"/>
<text text-anchor="middle" x="57.85" y="-191.94" font-family="Times New Roman,serif" font-size="9.00">M3 pos current</text>
</g>
<!-- M3 pos current&#45;&gt;M2 Torque -->
<g id="edge13" class="edge">
<title>M3 pos current&#45;&gt;M2 Torque</title>
<path fill="none" stroke="green" stroke-width="0.28" d="M94.99,-193.59C229.61,-194.85 686.29,-195.64 729.85,-149.14 807.77,-65.95 576.43,-47.79 468.76,-43.82"/>
<polygon fill="green" stroke="green" stroke-width="0.28" points="468.86,-40.32 458.74,-43.48 468.62,-47.32 468.86,-40.32"/>
</g>
<!-- M3 pos current&#45;&gt;M3 Torque -->
<g id="edge14" class="edge">
<title>M3 pos current&#45;&gt;M3 Torque</title>
<path fill="none" stroke="green" stroke-width="0.19" stroke-dasharray="1,5" d="M57.64,-184.69C57.73,-169.66 60.06,-138.1 76.85,-119.44 116.39,-75.48 183.59,-56.62 230.22,-48.58"/>
<polygon fill="green" stroke="green" stroke-width="0.19" points="230.82,-52.03 240.13,-46.98 229.7,-45.12 230.82,-52.03"/>
</g>
<!-- 7 -->
<g id="node12" class="node">
<title>7</title>
<ellipse fill="white" stroke="black" cx="14.85" cy="-134.29" rx="14.7" ry="14.7"/>
<text text-anchor="middle" x="14.85" y="-132.09" font-family="Times New Roman,serif" font-size="9.00">7</text>
</g>
<!-- M3 pos current&#45;&gt;7 -->
<g id="edge19" class="edge">
<title>M3 pos current&#45;&gt;7</title>
<path fill="none" stroke="green" stroke-width="0.24" d="M51.87,-185.09C46.1,-177.33 37.14,-165.28 29.48,-154.97"/>
<polygon fill="green" stroke="green" stroke-width="0.24" points="32.22,-152.79 23.45,-146.86 26.6,-156.97 32.22,-152.79"/>
</g>
<!-- M3 vel current -->
<g id="node8" class="node">
<title>M3 vel current</title>
<polygon fill="lightgray" stroke="black" points="720.35,-143.29 649.35,-143.29 649.35,-125.29 720.35,-125.29 720.35,-143.29"/>
<text text-anchor="middle" x="684.85" y="-132.09" font-family="Times New Roman,serif" font-size="9.00">M3 vel current</text>
</g>
<!-- M3 vel current&#45;&gt;M2 Torque -->
<g id="edge15" class="edge">
<title>M3 vel current&#45;&gt;M2 Torque</title>
<path fill="none" stroke="green" stroke-width="0.13" d="M661.07,-125.25C617.47,-110.52 523.94,-78.91 466.11,-59.37"/>
<polygon fill="green" stroke="green" stroke-width="0.13" points="467.04,-55.99 456.45,-56.1 464.8,-62.62 467.04,-55.99"/>
</g>
<!-- M3 vel current&#45;&gt;M3 Torque -->
<g id="edge16" class="edge">
<title>M3 vel current&#45;&gt;M3 Torque</title>
<path fill="none" stroke="green" stroke-width="0.36" d="M661.76,-125.19C655.08,-123.07 647.73,-120.96 640.85,-119.44 520.49,-92.83 483.94,-118.78 365.85,-83.44 352.73,-79.51 339.13,-73.75 326.78,-67.78"/>
<polygon fill="green" stroke="green" stroke-width="0.36" points="328.13,-64.54 317.62,-63.2 325,-70.8 328.13,-64.54"/>
</g>
<!-- &#45;9 -->
<g id="node9" class="node">
<title>&#45;9</title>
<polygon fill="lightgray" stroke="black" points="109.85,-143.29 85.85,-143.29 85.85,-125.29 109.85,-125.29 109.85,-143.29"/>
<text text-anchor="middle" x="97.85" y="-132.09" font-family="Times New Roman,serif" font-size="9.00">&#45;9</text>
</g>
<!-- &#45;9&#45;&gt;M2 Torque -->
<g id="edge17" class="edge">
<title>&#45;9&#45;&gt;M2 Torque</title>
<path fill="none" stroke="red" stroke-width="0.19" d="M108.49,-125.04C111.67,-122.92 115.27,-120.85 118.85,-119.44 208.6,-84.13 240.97,-112.77 332.85,-83.44 345.77,-79.31 359.21,-73.54 371.46,-67.63"/>
<polygon fill="red" stroke="red" stroke-width="0.19" points="373.17,-70.69 380.57,-63.11 370.06,-64.42 373.17,-70.69"/>
</g>
<!-- &#45;9&#45;&gt;M3 Torque -->
<g id="edge18" class="edge">
<title>&#45;9&#45;&gt;M3 Torque</title>
<path fill="none" stroke="green" stroke-width="0.28" d="M109.66,-125.08C112.61,-123.14 115.8,-121.15 118.85,-119.44 156.58,-98.26 201.13,-77.57 234.12,-63.02"/>
<polygon fill="green" stroke="green" stroke-width="0.28" points="235.77,-66.11 243.53,-58.9 232.96,-59.7 235.77,-66.11"/>
</g>
<!-- 7&#45;&gt;M3 Torque -->
<g id="edge20" class="edge">
<title>7&#45;&gt;M3 Torque</title>
<path fill="none" stroke="red" stroke-width="0.29" d="M27.68,-126.71C32.66,-124.27 38.46,-121.58 43.85,-119.44 107.63,-94.06 183.41,-70.77 232.04,-56.66"/>
<polygon fill="red" stroke="red" stroke-width="0.29" points="233.05,-60.01 241.69,-53.88 231.11,-53.29 233.05,-60.01"/>
</g>
</g>
</svg>
